<svg width="200" height="42" viewBox="0 0 200 42" fill="none" xmlns="http://www.w3.org/2000/svg">
<g clip-path="url(#clip0_1_2119)">
<path d="M6.69772 32.6787H4.62246V19.5145H6.72576C10.2032 19.5145 13.0637 21.6404 13.0637 26.1103C13.0637 30.5801 10.1752 32.6787 6.69772 32.6787ZM6.86598 15.7806H1.17306C0.808484 15.7806 0.5 16.0804 0.5 16.462V35.7313C0.5 36.0856 0.808484 36.3854 1.17306 36.3854H6.83794C12.8674 36.3854 17.3264 32.6242 17.3264 26.1103C17.3264 19.5963 12.9235 15.7806 6.86598 15.7806ZM1.17306 15.7806C0.808484 15.7806 0.5 16.0804 0.5 16.462V35.7313C0.5 36.0856 0.808484 36.3854 1.17306 36.3854" fill="#FFFFFF"/>
<path d="M30.816 31.2887C32.3303 31.2887 33.5643 32.4879 33.5643 33.9325C33.5643 35.377 32.3303 36.5762 30.816 36.5762C29.3296 36.5762 28.0957 35.377 28.0957 33.9325C28.0957 32.4879 29.3296 31.2887 30.816 31.2887Z" fill="#FFFFFF"/>
<path d="M45.3139 24.9928H41.9767V19.2693H45.3139C47.4172 19.2693 48.6231 20.414 48.6231 22.1311C48.6231 23.8481 47.4172 24.9928 45.3139 24.9928ZM48.3427 27.9636C51.119 27.1732 52.8577 24.9928 52.8577 22.1311C52.8577 18.5606 50.2216 15.8079 46.0991 15.8079H38.4992C38.1347 15.8079 37.8262 16.1077 37.8262 16.462V35.7313C37.8262 36.0856 38.1347 36.3854 38.4992 36.3854H41.3036C41.6682 36.3854 41.9767 36.0856 41.9767 35.7313V28.4542H44.1361L47.95 35.7313C48.1463 36.0856 48.5951 36.3854 48.9877 36.3854H52.2127C52.5773 36.3854 52.7456 36.0856 52.5493 35.7313L48.3427 27.9636Z" fill="#FFFFFF"/>
<path d="M27.9551 21.9675C26.6931 21.9675 24.674 22.3218 23.7766 24.2024V22.7306C23.7766 22.3763 23.4961 22.1038 23.1316 22.0765H20.5795C20.215 22.0765 19.9065 22.3763 19.9065 22.7034V35.6768C19.9065 36.0311 20.215 36.3309 20.5795 36.3309H23.2157C23.5803 36.3309 23.8887 36.0311 23.8887 35.6768V29.8169C23.8887 26.7371 25.6555 25.7832 27.6747 25.7832C28.0392 25.7832 28.4319 25.8105 28.8806 25.8922V22.022C28.5721 21.9947 28.2916 21.9675 27.9551 21.9675Z" fill="#FFFFFF"/>
<path d="M120.752 22.1038H117.864C117.499 22.1038 117.022 22.4036 116.798 22.7579L113.461 30.4711L109.871 22.7579C109.647 22.4036 109.198 22.1038 108.805 22.1038H105.721C105.356 22.1038 105.216 22.4036 105.412 22.7579L111.329 34.5866L108.16 41.3731C107.964 41.7274 108.132 42.0272 108.497 42.0272H111.357C111.722 42.0272 112.143 41.7547 112.367 41.4003L121.005 22.7579C121.257 22.3763 121.117 22.1038 120.752 22.1038Z" fill="#FFFFFF"/>
<path d="M133.148 27.7183L131.073 27.2822C130.26 27.1459 129.727 26.7099 129.727 26.0012C129.727 25.1836 130.568 24.584 131.606 24.584C132.924 24.584 133.569 25.2381 133.877 25.9195C133.989 26.2465 134.27 26.4646 134.634 26.3556L136.766 25.8922C137.102 25.7832 137.299 25.4561 137.214 25.1291C136.766 23.6028 135.223 21.6404 131.578 21.6404C128.409 21.6404 126.081 23.7663 126.081 26.3283C126.081 28.3179 127.371 29.9805 130.203 30.5801L132.138 31.0162C133.26 31.2342 133.709 31.7793 133.709 32.4062C133.709 33.1693 133.064 33.8234 131.774 33.8234C130.203 33.8234 129.334 32.9513 129.138 31.9428C129.082 31.7793 128.941 31.6975 128.773 31.7248L126.277 32.2699C125.941 32.3517 125.744 32.706 125.801 33.033C126.249 34.6683 127.904 36.7942 131.802 36.7942C135.644 36.7942 137.495 34.423 137.495 32.1064C137.523 30.0077 136.065 28.3179 133.148 27.7183Z" fill="#FFFFFF"/>
<path d="M57.7661 27.6092C57.8503 26.301 59.0001 24.802 61.0473 24.802C63.3189 24.802 64.2724 26.192 64.3284 27.6092H57.7661ZM60.9912 21.6676C57.2333 21.6676 53.7559 24.6384 53.7559 29.19C53.7559 34.0142 57.3174 36.8214 61.3277 36.8214C64.693 36.8214 66.9365 35.0226 67.8339 32.7877C67.862 32.4879 67.6657 32.1881 67.3572 32.1063L65.2258 31.4794C64.9734 31.4249 64.693 31.5067 64.5247 31.7792C63.9919 32.8149 63.0104 33.5236 61.3838 33.5236C59.4207 33.5236 57.7661 32.1608 57.682 30.2802H67.5815C67.9461 30.2802 68.2546 29.9804 68.2546 29.6261C68.2546 29.4626 68.2826 29.2718 68.2826 29.081C68.2546 24.4749 65.5343 21.6676 60.9912 21.6676Z" fill="#FFFFFF"/>
<path d="M78.1533 33.2783C76.0501 33.2783 74.5076 31.7793 74.5076 29.2173C74.5076 26.6553 76.1342 25.2108 78.1533 25.2108C80.1725 25.2108 81.771 26.6281 81.771 29.19C81.771 31.752 80.2006 33.2783 78.1533 33.2783ZM85.6411 35.7858V22.4853V16.0259C85.6411 15.6715 85.3326 15.3717 84.968 15.3717H82.388C82.0515 15.3717 81.771 15.617 81.7149 15.9441C81.7149 15.9713 81.6869 15.9986 81.6869 16.0259V23.3029H81.7149V23.5482C81.2943 22.7851 80.0884 21.7767 77.5644 21.7767C73.4139 21.7767 70.5254 25.0473 70.5254 29.2445C70.5254 33.5781 73.498 36.7669 77.7046 36.7669C79.6677 36.7669 81.1541 35.8948 81.8271 34.7773C81.8271 34.8046 81.8271 34.8046 81.8271 34.8318V34.8046C81.8271 35.0226 81.8271 35.1861 81.8552 35.3497C81.8832 35.6767 81.9112 35.9765 81.9393 36.1946C81.9954 36.3036 82.1076 36.4126 82.2758 36.4126H84.9961V36.3854C85.3046 36.3581 85.585 36.1128 85.6411 35.7858Z" fill="#FFFFFF"/>
<path d="M95.8216 33.2783C93.7183 33.2783 92.1758 31.7793 92.1758 29.2173C92.1758 26.6554 93.7743 25.2108 95.8216 25.2108C97.8407 25.2108 99.4392 26.6281 99.4392 29.1901C99.4392 31.752 97.8688 33.2783 95.8216 33.2783ZM103.309 35.7858V22.4853V16.0259C103.309 15.6716 103.001 15.3718 102.636 15.3718H100.056C99.7197 15.3718 99.4392 15.6171 99.3831 15.9441C99.3831 15.9714 99.3551 15.9986 99.3551 16.0259V23.303H99.3831V23.5483C98.9625 22.7851 97.7566 21.7767 95.2326 21.7767C91.0821 21.7767 88.1936 25.0473 88.1936 29.2446C88.1936 33.5781 91.1663 36.767 95.3729 36.767C97.3359 36.767 98.8223 35.8948 99.4953 34.7774V34.8319V34.8046C99.4953 35.0227 99.4953 35.1862 99.4953 35.3497C99.5234 35.6768 99.5514 35.9766 99.5794 36.1946C99.6355 36.3036 99.7758 36.4127 99.916 36.4127H102.636V36.3854C102.973 36.3581 103.253 36.1129 103.309 35.7858Z" fill="#FFFFFF"/>
<path d="M127.259 18.3426C127.371 18.07 127.427 17.7975 127.427 17.4977C127.427 16.2167 126.333 15.1537 124.987 15.1537C123.669 15.1537 122.575 16.2167 122.575 17.4977C122.575 18.5879 123.361 19.5145 124.426 19.7871L123.108 22.6761C123.108 22.7034 123.108 22.7034 123.108 22.7306C123.108 22.8669 123.22 22.9759 123.361 22.9759H124.679C124.819 22.9759 124.959 22.8669 125.015 22.7579L127.231 18.4516C127.231 18.4243 127.231 18.3971 127.259 18.3426Z" fill="#FFFFFF"/>
<path d="M171.372 40.8279V12.0739C171.26 7.6858 168.54 3.92461 164.642 2.20754C163.352 1.66244 161.95 1.30813 160.519 1.22636C153.34 0.872046 147.815 4.98756 146.329 10.5748C145.376 13.9545 146.105 18.0427 148.516 21.4768C151.461 25.6741 163.576 36.8214 169.437 41.8091C169.634 41.9454 169.886 42.0271 170.166 42.0271C170.811 41.9999 171.372 41.482 171.372 40.8279ZM168.848 27.6365C168.848 28.8085 167.867 29.7624 166.689 29.7624C165.483 29.7624 164.502 28.8085 164.502 27.6365C164.502 26.4645 165.483 25.5106 166.689 25.5106C167.867 25.5106 168.848 26.4645 168.848 27.6365Z" fill="#FFFFFF"/>
<path d="M180.458 25.9467C177.486 25.9467 175.046 28.2906 175.046 31.1797C175.046 34.0687 177.458 36.4126 180.458 36.4126C183.431 36.4126 185.843 34.0687 185.843 31.1797C185.871 28.2906 183.431 25.9467 180.458 25.9467Z" fill="#FFFFFF"/>
<path d="M175.074 37.8572C174.036 37.8572 173.223 38.6748 173.223 39.656C173.223 40.6644 174.064 41.4548 175.074 41.4548C176.111 41.4548 176.925 40.6372 176.925 39.656C176.925 38.6476 176.083 37.8572 175.074 37.8572Z" fill="#FFFFFF"/>
<path d="M190.722 13.1914C186.768 13.1914 183.543 16.2984 183.543 20.1687C183.543 24.0116 186.74 27.1459 190.722 27.1459C194.676 27.1459 197.901 24.0389 197.901 20.1687C197.901 16.2984 194.704 13.1914 190.722 13.1914Z" fill="#FFFFFF"/>
<path d="M195.714 4.60604C193.639 4.60604 191.956 6.24134 191.956 8.25821C191.956 10.2751 193.639 11.9104 195.714 11.9104C197.789 11.9104 199.472 10.2751 199.472 8.25821C199.5 6.24134 197.789 4.60604 195.714 4.60604Z" fill="#FFFFFF"/>
<path d="M181.328 13.3822C185.142 13.3822 188.227 10.3841 188.227 6.67742C188.227 2.97074 185.142 -0.0273151 181.328 -0.0273151C177.542 -0.0273151 174.457 2.97074 174.457 6.67742C174.457 10.3841 177.542 13.3822 181.328 13.3822Z" fill="#FFFFFF"/>
<path d="M181.608 19.2692C181.608 21.4769 179.785 23.2485 177.514 23.2485C175.242 23.2485 173.419 21.4769 173.419 19.2692C173.419 17.0616 175.242 15.29 177.514 15.29C179.757 15.29 181.608 17.0888 181.608 19.2692Z" fill="#FFFFFF"/>
</g>
<defs>
<clipPath id="clip0_1_2119">
<rect width="199" height="42" fill="white" transform="translate(0.5 -6.10352e-05)"/>
</clipPath>
</defs>
</svg>
